/* XPM */
static char * base_xpm[] = {
"30 30 74 1",
" 	c #EEEEEE",
".	c #FEFEFE",
"+	c #F5F5F5",
"@	c #FFFFFF",
"#	c #F7F7F7",
"$	c #EFEFEF",
"%	c #DCDCDC",
"&	c #E3E3E3",
"*	c #EDEDED",
"=	c #C0C0C0",
"-	c #D7D7D7",
";	c #E1E1E1",
">	c #E4E4E4",
",	c #E5E5E5",
"'	c #C2C2C2",
")	c #969696",
"!	c #DBDBDB",
"~	c #DDDDDD",
"{	c #D6D6D6",
"]	c #A4A4A4",
"^	c #858585",
"/	c #D1D1D1",
"(	c #ABABAB",
"_	c #979797",
":	c #D3D3D3",
"<	c #D0D0D0",
"[	c #D2D2D2",
"}	c #CDCDCD",
"|	c #C1C1C1",
"1	c #B0B0B0",
"2	c #A2A2A2",
"3	c #CFCFCF",
"4	c #CCCCCC",
"5	c #CACACA",
"6	c #B4B4B4",
"7	c #A9A9A9",
"8	c #C9C9C9",
"9	c #C7C7C7",
"0	c #C8C8C8",
"a	c #C6C6C6",
"b	c #B8B8B8",
"c	c #AFAFAF",
"d	c #C3C3C3",
"e	c #BABABA",
"f	c #C5C5C5",
"g	c #BFBFBF",
"h	c #BCBCBC",
"i	c #BEBEBE",
"j	c #BBBBBB",
"k	c #BDBDBD",
"l	c #B7B7B7",
"m	c #B5B5B5",
"n	c #B6B6B6",
"o	c #B3B3B3",
"p	c #B1B1B1",
"q	c #AEAEAE",
"r	c #AAAAAA",
"s	c #ACACAC",
"t	c #CBCBCB",
"u	c #B9B9B9",
"v	c #A8A8A8",
"w	c #A1A1A1",
"x	c #A3A3A3",
"y	c #A5A5A5",
"z	c #CECECE",
"A	c #9A9A9A",
"B	c #9D9D9D",
"C	c #898989",
"D	c #8D8D8D",
"E	c #919191",
"F	c #838383",
"G	c #727272",
"H	c #777777",
"I	c #7C7C7C",
" .++++++++++++++++++++++++++++",
"+@.##########################$",
"%&$$************************&=",
"%-;>,>>>>>>>>>>>>>>>>>>>>>>%')",
"%-!!%~~~~~~~~~~~~~~~~~~~~~{']^",
"%-!-{{-------------------/'(_^",
"%-!-:/</[[[[[[[[[[[[[[[[}|12_^",
"%-!-:3}44}}}}}}}}}}}}}}5|672_^",
"%-!-:34890000000000000a=bc72_^",
"%-!-:340addddddddddddd=e6c72_^",
"%-!-:340f'===========ghb6c72_^",
"%-!-:340f'=ggggggggggihb6c72_^",
"%-!-:340f'=ggggggggggihb6c72_^",
"%-!-:340f'=ggggggggggihb6c72_^",
"%-!-:340f'=ggggggggggihb6c72_^",
"%-!-:340f'=ggggggggggihb6c72_^",
"%-!-:340f'=ggggggggggihb6c72_^",
"%-!-:340f'=ggggggggggihb6c72_^",
"%-!-:340f'=ggggggggggihb6c72_^",
"%-!-:340f'=ggggggggggihb6c72_^",
"%-!-:340f'=ggggggggggihb6c72_^",
"%-!-:340f|giiiiiiiiiiihb6c72_^",
"%-!-:340dijjjjjjjjjjjjjb6c72_^",
"%-!-:34fklmmmmmmmmmmmmnn6c72_^",
"%-!-:39ho111111111111111pc72_^",
"%-!-:8jq7777777777777777rs72_^",
"%-!-tuvwwwwwwwwwwwwwwwwwwxyw_^",
"%-!zlw____________________AB)^",
"%-<o)CCCCCCCCCCCCCCCCCCCCCCDE^",
"%3sFGGGGGGGGGGGGGGGGGGGGGGGGHI"};
