/* XPM */
static char * bomb_xpm[] = {
"30 30 168 2",
"  	c #BFBFBF",
". 	c #C0BEBE",
"+ 	c #C0BDBD",
"@ 	c #C2BCBC",
"# 	c #C3BBBB",
"$ 	c #C4BAB9",
"% 	c #C4B9B8",
"& 	c #C3BABA",
"* 	c #C1BDBD",
"= 	c #C2BCBB",
"- 	c #C5B8B7",
"; 	c #C6B7B6",
"> 	c #C7B6B5",
", 	c #C6B7B5",
"' 	c #C1BCBC",
") 	c #C8B5B3",
"! 	c #CAB2B0",
"~ 	c #CCB1AE",
"{ 	c #CDB0AC",
"] 	c #CCB0AD",
"^ 	c #CBB2AF",
"/ 	c #C9B4B2",
"( 	c #C6B6B5",
"_ 	c #C4B9B9",
": 	c #CAB3B1",
"< 	c #D0AEA7",
"[ 	c #D2ADA4",
"} 	c #D3ACA2",
"| 	c #D2ADA3",
"1 	c #D1ADA6",
"2 	c #CEAFAA",
"3 	c #C8B6B4",
"4 	c #CFAEA9",
"5 	c #D3ADA3",
"6 	c #D6AD9E",
"7 	c #D7AE9B",
"8 	c #D9B099",
"9 	c #D8AF9A",
"0 	c #D6AD9D",
"a 	c #D4ACA1",
"b 	c #D1ADA7",
"c 	c #CCB1AD",
"d 	c #D8AD9A",
"e 	c #DBB195",
"f 	c #DDB691",
"g 	c #DFBA8F",
"h 	c #DFBB8F",
"i 	c #DEB890",
"j 	c #DCB393",
"k 	c #DAAE98",
"l 	c #D6AB9E",
"m 	c #DCB492",
"n 	c #E1BD8C",
"o 	c #E4C686",
"p 	c #E7CC83",
"q 	c #E7CE83",
"r 	c #E5C984",
"s 	c #E2C289",
"t 	c #DEB88F",
"u 	c #DAB097",
"v 	c #D5ADA0",
"w 	c #CFAFA9",
"x 	c #CAB3B0",
"y 	c #E1BE8C",
"z 	c #E6CD83",
"A 	c #EBD77E",
"B 	c #EFDF7A",
"C 	c #F0E179",
"D 	c #EDDB7B",
"E 	c #E9D37F",
"F 	c #E3C488",
"G 	c #DEB692",
"H 	c #D8AF9B",
"I 	c #E4C687",
"J 	c #EBD87D",
"K 	c #F1E47C",
"L 	c #F6EA80",
"M 	c #F7EC80",
"N 	c #F4E87C",
"O 	c #EEDF7C",
"P 	c #E7CE84",
"Q 	c #E0BD8D",
"R 	c #DAB297",
"S 	c #D5ACA0",
"T 	c #D3ADA2",
"U 	c #E7CD84",
"V 	c #EFDF7B",
"W 	c #F6EB80",
"X 	c #FAF18D",
"Y 	c #FBF38E",
"Z 	c #F9EF83",
"` 	c #F4E67C",
" .	c #EAD582",
"..	c #E2C38B",
"+.	c #DCB594",
"@.	c #D9B199",
"#.	c #DFBC8F",
"$.	c #E8CE82",
"%.	c #F0E27A",
"&.	c #F7ED80",
"*.	c #FBF38F",
"=.	c #FDF48F",
"-.	c #FAF183",
";.	c #F4E77C",
">.	c #EBD782",
",.	c #E2C48B",
"'.	c #DCB694",
").	c #D0AEA8",
"!.	c #DEB990",
"~.	c #E6CB84",
"{.	c #EEDD7A",
"].	c #F5E97C",
"^.	c #F9F084",
"/.	c #FAF284",
"(.	c #F7ED7C",
"_.	c #F1E379",
":.	c #E9D282",
"<.	c #E1C18C",
"[.	c #DBB496",
"}.	c #D5AD9F",
"|.	c #C5B7B7",
"1.	c #C6B8B7",
"2.	c #D1AEA6",
"3.	c #D7AE9D",
"4.	c #DCB593",
"5.	c #E9D47F",
"6.	c #EFE07C",
"7.	c #F4E77E",
"8.	c #F5E87D",
"9.	c #F1E47A",
"0.	c #EDDA7C",
"a.	c #E5CA85",
"b.	c #DFBB90",
"c.	c #D4ADA2",
"d.	c #C7B6B4",
"e.	c #D4ADA1",
"f.	c #DAAF97",
"g.	c #DFB98F",
"h.	c #E3C687",
"i.	c #E8D083",
"j.	c #ECD881",
"k.	c #EAD381",
"l.	c #E5CB85",
"m.	c #DCB394",
"n.	c #D6AE9D",
"o.	c #C6B8B6",
"p.	c #D6AC9D",
"q.	c #DAB096",
"r.	c #DEB891",
"s.	c #E0BF8D",
"t.	c #E3C48A",
"u.	c #E3C68A",
"v.	c #E1C28C",
"w.	c #D7AD9B",
"x.	c #CDB0AB",
"y.	c #C1BDBC",
"z.	c #CDB1AD",
"A.	c #D1ADA5",
"B.	c #D8B09A",
"C.	c #DAB396",
"D.	c #DCB794",
"E.	c #DBB495",
"F.	c #D9B299",
"G.	c #CEB0AA",
"H.	c #CAB4B1",
"I.	c #C3BBBA",
"J.	c #C9B5B2",
"K.	c #C6B7B7",
"                                                            ",
"                                                            ",
"                                                            ",
"                                                            ",
"                                                            ",
"                  . + @ # $ % % $ & @ * . .                 ",
"                . * = $ - ; > > , - % # ' . .               ",
"              . ' & - ) ! ~ { { ] ^ / ( _ @ + .             ",
"            . ' & , : { < [ } } | 1 2 ^ 3 % @ + .           ",
"          . * & , ^ 4 5 6 7 8 8 9 0 a b c ) % @ .           ",
"          * = - : 4 a d e f g h i j k l 1 ~ > & '           ",
"          @ $ ) { 5 d m n o p q r s t u v w : - #           ",
"          # - x < 6 e y z A B C D E F G H [ ] > _           ",
"          & ; ~ [ 7 f I J K L M N O P Q R S 2 ) -           ",
"          _ > { T 8 h U V W X Y Z `  ...+.6 4 / ;           ",
"          _ > { T @.#.$.%.&.*.=.-.;.>.,.'.0 )./ ;           ",
"          & ; ] | 9 !.~.{.].^./.(._.:.<.[.}.4 ) |.          ",
"          # 1.^ 2.3.4.F 5.6.7.8.9.0.a.b.@.c.{ d.%           ",
"          @ $ / 2 e.f.g.h.i.>.j.k.l.y m.n.2.^ o.&           ",
"          * # , ^ 1 p.q.r.s.t.u.v.#.m.w.5 x.) $ @           ",
"          . y._ ) z.A.}.B.C.'.D.E.F.n.5 G.H.- = +           ",
"          . . @ % ) c ).5 }.0 0 6 e.2.x.H.o.I.* .           ",
"            . + = % d.x { 2 ).).4 x.^ ) - I.* .             ",
"              . + ' & - > ) / / J.d.o.$ = * .               ",
"                . . ' # _ - ; ; K.% & @ + .                 ",
"                                                            ",
"                                                            ",
"                                                            ",
"                                                            ",
"                                                            "};
