/* XPM */
static char * eigth_xpm[] = {
"30 30 52 1",
" 	c #BFBFBF",
".	c #B9B9B9",
"+	c #919191",
"@	c #6F6F6F",
"#	c #616161",
"$	c #6A6A6A",
"%	c #828282",
"&	c #ABABAB",
"*	c #BABABA",
"=	c #6E6E6E",
"-	c #5D5D5D",
";	c #868686",
">	c #999999",
",	c #696969",
"'	c #5B5B5B",
")	c #A0A0A0",
"!	c #9D9D9D",
"~	c #B8B8B8",
"{	c #636363",
"]	c #969696",
"^	c #B1B1B1",
"/	c #767676",
"(	c #A9A9A9",
"_	c #959595",
":	c #B5B5B5",
"<	c #8B8B8B",
"[	c #8A8A8A",
"}	c #B4B4B4",
"|	c #A4A4A4",
"1	c #787878",
"2	c #BBBBBB",
"3	c #BDBDBD",
"4	c #656565",
"5	c #747474",
"6	c #979797",
"7	c #727272",
"8	c #878787",
"9	c #9F9F9F",
"0	c #BEBEBE",
"a	c #A1A1A1",
"b	c #5E5E5E",
"c	c #6D6D6D",
"d	c #989898",
"e	c #7D7D7D",
"f	c #A5A5A5",
"g	c #606060",
"h	c #B3B3B3",
"i	c #808080",
"j	c #AFAFAF",
"k	c #939393",
"l	c #717171",
"m	c #A6A6A6",
"                              ",
"                              ",
"                              ",
"                              ",
"                              ",
"                              ",
"                              ",
"           .+@#$%&            ",
"          *=-;>+,')           ",
"          !'!   ~{@           ",
"          ]'^    /{           ",
"          ('_   :#;           ",
"           <'[}|,12           ",
"            _''';3            ",
"           )4567'8*           ",
"          9'+0  ab10          ",
"          c=     d'(          ",
"          -e     f')          ",
"          5gh   0i'j          ",
"          (-#<>kl'[           ",
"           j;$b,em            ",
"                              ",
"                              ",
"                              ",
"                              ",
"                              ",
"                              ",
"                              ",
"                              ",
"                              "};
