/* XPM */
static char * five_xpm[] = {
"30 30 50 1",
" 	c #BFBFBF",
".	c #995E43",
"+	c #964C1C",
"@	c #B4A7A4",
"#	c #BFBFBE",
"$	c #974F24",
"%	c #A07261",
"&	c #AE9992",
"*	c #BAB5B3",
"=	c #BCB9B8",
"-	c #AA9088",
";	c #B8B1AF",
">	c #AE9993",
",	c #B5AAA7",
"'	c #B2A29E",
")	c #BCBABA",
"!	c #BAB6B4",
"~	c #BDBBBA",
"{	c #B2A29D",
"]	c #97522C",
"^	c #9E6C59",
"/	c #B2A39E",
"(	c #A88A81",
"_	c #AD968F",
":	c #B2A19D",
"<	c #B19F9B",
"[	c #AA8F87",
"}	c #995838",
"|	c #AE9A94",
"1	c #BAB4B3",
"2	c #985635",
"3	c #985532",
"4	c #BDBCBB",
"5	c #A6847A",
"6	c #B6ADAA",
"7	c #A37C6F",
"8	c #B9B2B0",
"9	c #B3A6A2",
"0	c #964D1F",
"a	c #A17565",
"b	c #A3796A",
"c	c #9C654F",
"d	c #A6857A",
"e	c #AC938B",
"f	c #AB928A",
"g	c #A37A6D",
"h	c #9B6046",
"i	c #BAB4B2",
"j	c #98532E",
"k	c #9E6A56",
"                              ",
"                              ",
"                              ",
"                              ",
"                              ",
"                              ",
"                              ",
"           .++++++@           ",
"          #$%&&&&&*           ",
"          =+-                 ",
"          ;+>                 ",
"          ,+')!~              ",
"          {+]+++^/            ",
"          =(_:<[}+|           ",
"                1234          ",
"                 5+6          ",
"                 [+,          ",
"                 7+!          ",
"          8     90a           ",
"          bcdefg+hi           ",
"          97c3jk-=            ",
"                              ",
"                              ",
"                              ",
"                              ",
"                              ",
"                              ",
"                              ",
"                              ",
"                              "};
