/* XPM */
static char * flag_xpm[] = {
"30 30 2 1",
" 	c #BFBFBF",
".	c #D52929",
"                              ",
"                              ",
"                              ",
"                    ..        ",
"                   ...        ",
"                  ....        ",
"                 .....        ",
"                ......        ",
"               .......        ",
"              ........        ",
"             .........        ",
"            ..........        ",
"           ...........        ",
"          ............        ",
"         .............        ",
"        ..............        ",
"       ...............        ",
"      ................        ",
"     .................        ",
"                   ...        ",
"                   ...        ",
"                   ...        ",
"                   ...        ",
"                   ...        ",
"                   ...        ",
"                   ...        ",
"                   ...        ",
"                   ...        ",
"                              ",
"                              "};
