/* XPM */
static char * four_xpm[] = {
"30 30 37 1",
" 	c #BFBFBF",
".	c #A9A9AD",
"+	c #1D1B59",
"@	c #2F2E5F",
"#	c #B9B9BA",
"$	c #464569",
"%	c #6F6E81",
"&	c #444468",
"*	c #6D6C7F",
"=	c #92929B",
"-	c #161458",
";	c #A4A4A9",
">	c #6D6D80",
",	c #ACACAF",
"'	c #22215B",
")	c #888793",
"!	c #6A6A7E",
"~	c #BABABB",
"{	c #4C4C6C",
"]	c #64647B",
"^	c #BEBEBE",
"/	c #69697E",
"(	c #747485",
"_	c #3D3C64",
":	c #B6B6B7",
"<	c #97979F",
"[	c #A5A5AA",
"}	c #AFAFB2",
"|	c #29285D",
"1	c #8A8A95",
"2	c #82828F",
"3	c #121057",
"4	c #BBBBBC",
"5	c #9F9FA5",
"6	c #807F8D",
"7	c #201E5A",
"8	c #BDBDBD",
"                              ",
"                              ",
"                              ",
"                              ",
"                              ",
"                              ",
"                              ",
"               .+@            ",
"              #$+@            ",
"              %&*@            ",
"             =-;>@            ",
"            ,') !@            ",
"           ~{]^ /@            ",
"           (_:  /@            ",
"          <-[   /@            ",
"         }|1    /@            ",
"         233333333334         ",
"         5666666$7668         ",
"                /@            ",
"                /@            ",
"                /@            ",
"                              ",
"                              ",
"                              ",
"                              ",
"                              ",
"                              ",
"                              ",
"                              ",
"                              "};
