/* XPM */
static char * one_xpm[] = {
"30 30 16 1",
" 	c #BFBFBF",
".	c #B0B0C2",
"+	c #5454CD",
"@	c #1717D0",
"#	c #B7B7C1",
"$	c #9E9EC5",
"%	c #3131CF",
"&	c #1D1DD0",
"*	c #BDBDBF",
"=	c #8383C9",
"-	c #7171CA",
";	c #7B7BCB",
">	c #BDBDC0",
",	c #6262CD",
"'	c #8B8BC8",
")	c #7D7DCA",
"                              ",
"                              ",
"                              ",
"                              ",
"                              ",
"                              ",
"                              ",
"             .+@#             ",
"            $%&@#             ",
"          *=@-;@#             ",
"          >,' )@#             ",
"           *  ;@#             ",
"              ;@#             ",
"              ;@#             ",
"              ;@#             ",
"              ;@#             ",
"              ;@#             ",
"              ;@#             ",
"              ;@#             ",
"              ;@#             ",
"              ;@#             ",
"                              ",
"                              ",
"                              ",
"                              ",
"                              ",
"                              ",
"                              ",
"                              ",
"                              "};
