/* XPM */
static char * seven_xpm[] = {
"30 30 36 1",
" 	c #BFBFBF",
".	c #B4B4B4",
"+	c #040404",
"@	c #919191",
"#	c #BABABA",
"$	c #646464",
"%	c #A1A1A1",
"&	c #BDBDBD",
"*	c #444444",
"=	c #4B4B4B",
"-	c #BEBEBE",
";	c #9A9A9A",
">	c #959595",
",	c #525252",
"'	c #373737",
")	c #BCBCBC",
"!	c #8A8A8A",
"~	c #5F5F5F",
"{	c #212121",
"]	c #B7B7B7",
"^	c #A8A8A8",
"/	c #7D7D7D",
"(	c #6B6B6B",
"_	c #0B0B0B",
":	c #B1B1B1",
"<	c #AFAFAF",
"[	c #6F6F6F",
"}	c #777777",
"|	c #A9A9A9",
"1	c #151515",
"2	c #5D5D5D",
"3	c #808080",
"4	c #9F9F9F",
"5	c #B8B8B8",
"6	c #262626",
"7	c #4A4A4A",
"                              ",
"                              ",
"                              ",
"                              ",
"                              ",
"                              ",
"                              ",
"         .+++++++++@          ",
"         #@@@@@@@$+%          ",
"                &*=-          ",
"                ;+>           ",
"                ,')           ",
"               %+!            ",
"               ~{]            ",
"              ^+/             ",
"              (_:             ",
"             <+[              ",
"             }+|              ",
"            .12               ",
"            3+4               ",
"           567-               ",
"                              ",
"                              ",
"                              ",
"                              ",
"                              ",
"                              ",
"                              ",
"                              ",
"                              "};
