/* XPM */
static char * six_xpm[] = {
"30 30 65 1",
" 	c #BFBFBF",
".	c #9EB5B8",
"+	c #6EA8B1",
"@	c #47A2AD",
"#	c #279FAC",
"$	c #36A0AC",
"%	c #9FB4B9",
"&	c #BDBEBF",
"*	c #6FA9B1",
"=	c #179EAB",
"-	c #52A3AF",
";	c #83ADB4",
">	c #8FB1B6",
",	c #8AAEB5",
"'	c #A7B8BA",
")	c #80ACB3",
"!	c #91B1B6",
"~	c #BEBFBF",
"{	c #B3BBBD",
"]	c #209EAB",
"^	c #78ABB3",
"/	c #90B0B6",
"(	c #AAB8BB",
"_	c #BCBEBF",
":	c #B5BCBC",
"<	c #BDBFBF",
"[	c #71A9B1",
"}	c #1A9EAB",
"|	c #72A9B2",
"1	c #2B9FAC",
"2	c #7EACB4",
"3	c #BBBDBE",
"4	c #58A4AE",
"5	c #39A0AC",
"6	c #59A4AF",
"7	c #75AAB2",
"8	c #9CB4B8",
"9	c #99B3B8",
"0	c #6BA8B1",
"a	c #6AA8B0",
"b	c #49A2AE",
"c	c #93B1B6",
"d	c #6DA8B0",
"e	c #4EA3AE",
"f	c #37A0AC",
"g	c #93B1B7",
"h	c #63A6B0",
"i	c #A5B7BA",
"j	c #88AEB5",
"k	c #ADB9BB",
"l	c #96B2B7",
"m	c #9DB4B8",
"n	c #B0BABC",
"o	c #259FAB",
"p	c #65A7B0",
"q	c #51A3AE",
"r	c #2D9FAC",
"s	c #B8BCBD",
"t	c #54A4AE",
"u	c #8AAFB5",
"v	c #86AEB4",
"w	c #4AA2AE",
"x	c #A2B6B9",
"y	c #2F9FAC",
"z	c #64A6AF",
"                              ",
"                              ",
"                              ",
"                              ",
"                              ",
"                              ",
"                              ",
"             .+@#$%           ",
"           &*=-;>,'           ",
"           )=!~               ",
"          {]^                 ",
"          /=( _:<             ",
"          [}{|}=123           ",
"          4567890=a           ",
"          b=c    d=(          ",
"          ef~    .=g          ",
"          hf     i=/          ",
"          j=k    l=m          ",
"          nop&  3qrs          ",
"           c=tuvw=l           ",
"            xp$yzx            ",
"                              ",
"                              ",
"                              ",
"                              ",
"                              ",
"                              ",
"                              ",
"                              ",
"                              "};
