/* XPM */
static char * three_xpm[] = {
"30 30 56 1",
" 	c #BFBFBF",
".	c #C0BDBD",
"+	c #CD9898",
"@	c #D96868",
"#	c #DF3737",
"$	c #E11616",
"%	c #DF3939",
"&	c #D86C6C",
"*	c #C8A9A9",
"=	c #D96767",
"-	c #E10000",
";	c #D95E5E",
">	c #D28787",
",	c #D18E8E",
"'	c #D47B7B",
")	c #E02727",
"!	c #C9A6A6",
"~	c #C6ADAD",
"{	c #C9A8A8",
"]	c #C0BEBE",
"^	c #DB5858",
"/	c #CAA2A2",
"(	c #D47F7F",
"_	c #C4B3B3",
":	c #C4B1B1",
"<	c #C8A8A8",
"[	c #D18989",
"}	c #E02929",
"|	c #C2B8B8",
"1	c #E10D0D",
"2	c #D38080",
"3	c #C9A4A4",
"4	c #CBA0A0",
"5	c #CE9797",
"6	c #DF3333",
"7	c #DE4444",
"8	c #C1BABA",
"9	c #D87171",
"0	c #C7ACAC",
"a	c #C0BCBC",
"b	c #C5B1B1",
"c	c #E01D1D",
"d	c #DE3D3D",
"e	c #C2B7B7",
"f	c #DB5959",
"g	c #D57D7D",
"h	c #D18C8C",
"i	c #D08D8D",
"j	c #D67575",
"k	c #E02222",
"l	c #CF9393",
"m	c #D96363",
"n	c #DE3F3F",
"o	c #E02B2B",
"p	c #DB4F4F",
"q	c #C5B2B2",
"                              ",
"                              ",
"                              ",
"                              ",
"                              ",
"                              ",
"                              ",
"          .+@#$%&*            ",
"          =-;>,')$!           ",
"          ~{    *-=           ",
"                ]$^           ",
"                /-(           ",
"            _:<[};|           ",
"            #--12|            ",
"            3452%6/           ",
"                |768          ",
"                 2-*          ",
"                 9-0          ",
"         ab     0cd.          ",
"         e-fghijkc3           ",
"         .lmncop(q            ",
"                              ",
"                              ",
"                              ",
"                              ",
"                              ",
"                              ",
"                              ",
"                              ",
"                              "};
