/* XPM */
static char * two_xpm[] = {
"30 30 47 1",
" 	c #BFBFBF",
".	c #B0B8B0",
"+	c #7CA47C",
"@	c #499649",
"#	c #2D922D",
"$	c #509850",
"%	c #7DA57D",
"&	c #B5BAB5",
"*	c #93AC93",
"=	c #229122",
"-	c #449544",
";	c #82A682",
">	c #8FAA8F",
",	c #78A278",
"'	c #3A943A",
")	c #B2B9B2",
"!	c #A2B2A2",
"~	c #80A580",
"{	c #BBBDBB",
"]	c #9BAF9B",
"^	c #1A901A",
"/	c #619C61",
"(	c #B9BDB9",
"_	c #6C9E6C",
":	c #9CB09C",
"<	c #92AC92",
"[	c #B8BCB8",
"}	c #479647",
"|	c #BCBEBC",
"1	c #649D64",
"2	c #299129",
"3	c #A9B5A9",
"4	c #6B9F6B",
"5	c #A0B1A0",
"6	c #259125",
"7	c #9FB19F",
"8	c #699E69",
"9	c #279127",
"0	c #A1B1A1",
"a	c #679D67",
"b	c #2B922B",
"c	c #A4B3A4",
"d	c #BEBFBE",
"e	c #669E66",
"f	c #6FA06F",
"g	c #AFB8AF",
"h	c #98AE98",
"                              ",
"                              ",
"                              ",
"                              ",
"                              ",
"                              ",
"                              ",
"           .+@#$%&            ",
"          *=-;>,=')           ",
"          !~{   ]^%           ",
"                {^/           ",
"                (^_           ",
"                :^<           ",
"               [@}{           ",
"              |123            ",
"             |4=5             ",
"            |467              ",
"           |890               ",
"          {abc                ",
"         de^f<<<<<<g          ",
"         {^^^^^^^^^h          ",
"                              ",
"                              ",
"                              ",
"                              ",
"                              ",
"                              ",
"                              ",
"                              ",
"                              "};
